<?xml version="1.0" encoding="iso-8859-1"?>
<!-- Generator: Adobe Illustrator 17.1.0, SVG Export Plug-In . SVG Version: 6.00 Build 0)  -->
<!DOCTYPE svg PUBLIC "-//W3C//DTD SVG 1.1//EN" "http://www.w3.org/Graphics/SVG/1.1/DTD/svg11.dtd">
<svg version="1.1" id="Capa_1" xmlns="http://www.w3.org/2000/svg" xmlns:xlink="http://www.w3.org/1999/xlink" x="0px" y="0px"
	 viewBox="0 0 307.252 307.252" style="enable-background:new 0 0 307.252 307.252;" xml:space="preserve">
<path id="XMLID_564_" d="M184.581,230.833l9.521-100.238c0.575-6.048,5.931-10.48,11.991-9.911
	c6.048,0.575,10.485,5.943,9.911,11.991l-9.521,100.238c-0.541,5.694-5.332,9.961-10.938,9.961c-0.348,0-0.699-0.017-1.053-0.05
	C188.444,242.249,184.007,236.881,184.581,230.833z M45.306,37.023h216.644c6.075,0,11-4.925,11-11s-4.925-11-11-11h-61.998
	c0.49-1.246,0.759-2.604,0.759-4.023c0-6.075-4.925-11-11-11h-72.165c-6.075,0-11,4.925-11,11c0,1.42,0.269,2.777,0.759,4.023
	H45.306c-6.075,0-11,4.925-11,11S39.23,37.023,45.306,37.023z M153.624,260.644c6.075,0,11-4.925,11-11V113.864
	c0-6.075-4.925-11-11-11s-11,4.925-11,11v135.779C142.624,255.719,147.549,260.644,153.624,260.644z M273.279,68.477l-25.58,228.996
	c-0.622,5.568-5.329,9.779-10.932,9.779H70.484c-5.603,0-10.31-4.211-10.932-9.779L33.973,68.477
	c-0.348-3.11,0.646-6.222,2.733-8.555c2.086-2.333,5.068-3.666,8.198-3.666h217.443c3.13,0,6.112,1.333,8.198,3.666
	C272.633,62.255,273.627,65.366,273.279,68.477z M250.051,78.256H57.201l23.123,206.996h146.604L250.051,78.256z M100.772,232.913
	c0.54,5.694,5.33,9.961,10.938,9.961c0.348,0,0.699-0.017,1.053-0.05c6.048-0.575,10.485-5.943,9.911-11.991l-9.52-100.238
	c-0.575-6.048-5.938-10.484-11.991-9.911c-6.048,0.575-10.485,5.943-9.911,11.991L100.772,232.913z"/>
<g>
</g>
<g>
</g>
<g>
</g>
<g>
</g>
<g>
</g>
<g>
</g>
<g>
</g>
<g>
</g>
<g>
</g>
<g>
</g>
<g>
</g>
<g>
</g>
<g>
</g>
<g>
</g>
<g>
</g>
</svg>
